<svg width="20" height="16" viewBox="0 0 20 16" fill="none" xmlns="http://www.w3.org/2000/svg">
<path d="M0.399998 2.1037C0.399998 1.53096 0.877561 1.06667 1.46666 1.06667H6.36127C6.70378 1.06667 7.02545 1.22657 7.22599 1.49653L7.97401 2.50347C8.17454 2.77342 8.49622 2.93333 8.83873 2.93333H18.5333C19.1224 2.93333 19.6 3.39763 19.6 3.97037V14.963C19.6 15.5357 19.1224 16 18.5333 16H1.46666C0.877561 16 0.399998 15.5357 0.399998 14.963V2.1037Z" fill="#74BAF2"/>
<path d="M0.399998 1.07407C0.399998 0.480879 0.877561 0 1.46666 0H6.36127C6.70378 0 7.02545 0.165619 7.22599 0.445214L7.97401 1.48812C8.17454 1.76771 8.49622 1.93333 8.83873 1.93333H18.5333C19.1224 1.93333 19.6 2.41421 19.6 3.00741V14.3926C19.6 14.9858 19.1224 15.4667 18.5333 15.4667H1.46666C0.877561 15.4667 0.399998 14.9858 0.399998 14.3926V1.07407Z" fill="#94CFFD"/>
</svg>
