<svg width="30" height="24" viewBox="0 0 30 24" fill="none" xmlns="http://www.w3.org/2000/svg">
<path d="M0.599998 3.15555C0.599998 2.29644 1.31634 1.6 2.2 1.6H9.5419C10.0557 1.6 10.5382 1.83986 10.839 2.24479L11.961 3.75521C12.2618 4.16014 12.7443 4.4 13.2581 4.4H27.8C28.6837 4.4 29.4 5.09644 29.4 5.95555V22.4444C29.4 23.3036 28.6837 24 27.8 24H2.2C1.31634 24 0.599998 23.3036 0.599998 22.4444V3.15555Z" fill="#74BAF2"/>
<path d="M0.599998 1.61111C0.599998 0.721318 1.31634 0 2.2 0H9.5419C10.0557 0 10.5382 0.248429 10.839 0.667821L11.961 2.23218C12.2618 2.65157 12.7443 2.9 13.2581 2.9H27.8C28.6837 2.9 29.4 3.62132 29.4 4.51111V21.5889C29.4 22.4787 28.6837 23.2 27.8 23.2H2.2C1.31634 23.2 0.599998 22.4787 0.599998 21.5889V1.61111Z" fill="#94CFFD"/>
</svg>
