<svg width="14" height="14" viewBox="0 0 14 14" fill="none" xmlns="http://www.w3.org/2000/svg">
<path d="M7 0C3.13243 0 0 3.1802 0 7.10675C0 10.4466 2.25728 13.2186 5.30272 14C5.26757 13.9111 5.2503 13.7865 5.2503 13.6625V12.4541H4.37515C3.90272 12.4541 3.46485 12.2412 3.27243 11.8498C3.04485 11.4234 3.0097 10.766 2.43243 10.3571C2.25728 10.215 2.39728 10.0728 2.5897 10.0904C2.95728 10.1968 3.25455 10.446 3.53455 10.8186C3.81455 11.1918 3.93728 11.2807 4.46213 11.2807C4.70698 11.2807 5.09183 11.2631 5.44213 11.2093C5.63455 10.7115 5.96698 10.2676 6.3697 10.0547C4.02485 9.77042 2.90485 8.59766 2.90485 6.99849C2.90485 6.30535 3.20213 5.6479 3.69243 5.07936C3.53515 4.52836 3.32485 3.39128 3.76272 2.94734C4.81302 2.94734 5.44272 3.64047 5.6 3.81769C6.12485 3.63987 6.70272 3.53342 7.29728 3.53342C7.9097 3.53342 8.4697 3.63987 8.99455 3.81769C9.15183 3.63987 9.78213 2.94734 10.8318 2.94734C11.2518 3.37374 11.0594 4.52836 10.8843 5.07936C11.3746 5.63036 11.6546 6.30535 11.6546 6.99849C11.6546 8.59766 10.5518 9.77042 8.22485 10.019C8.87243 10.3565 9.32757 11.3158 9.32757 12.0264V13.645C9.32757 13.6982 9.3103 13.7514 9.3103 13.8046C12.04 12.8454 14 10.2162 14 7.10675C14 3.1802 10.8676 0 7 0Z" fill="#A5A9AF"/>
</svg>
