<svg width="22" height="22" viewBox="0 0 22 22" fill="none" xmlns="http://www.w3.org/2000/svg">
<path fill-rule="evenodd" clip-rule="evenodd" d="M22 11C22 17.0751 17.0751 22 11 22C4.92487 22 0 17.0751 0 11C0 4.92487 4.92487 0 11 0C17.0751 0 22 4.92487 22 11ZM11 20.0299C15.987 20.0299 20.0299 15.987 20.0299 11C20.0299 6.01295 15.987 1.97015 11 1.97015C6.01295 1.97015 1.97015 6.01295 1.97015 11C1.97015 15.987 6.01295 20.0299 11 20.0299Z" fill="#A5A9AF"/>
<path d="M12.5979 8.55109C12.5979 9.25078 12.2797 9.64683 11.7495 10.0825L11.0336 10.6766C10.331 11.2706 10.1454 11.4687 10.1454 12.3136V13.1585H11.7097V12.5644C11.7097 12.1023 11.829 11.9835 12.2002 11.6799L12.9558 11.0594C13.7645 10.3861 14.3478 9.72604 14.3478 8.45868C14.3478 7.01969 13.3933 5.73913 11.1131 5.73913C8.89922 5.73913 7.6133 7.16491 7.65307 9.22437H9.36322C9.34996 7.77219 10.0791 7.16491 11.0999 7.16491C12.0411 7.16491 12.5979 7.73258 12.5979 8.55109ZM11.9483 16.2609V14.4126H9.89349V16.2609H11.9483Z" fill="#A5A9AF"/>
</svg>
