<svg width="14" height="14" viewBox="0 0 14 14" fill="none" xmlns="http://www.w3.org/2000/svg">
<path fill-rule="evenodd" clip-rule="evenodd" d="M1.03469 0C0.463422 0 0 0.449312 0 1.00286V12.9975C0 13.5511 0.463477 14 1.03469 14H12.9653C13.5368 14 14 13.551 14 12.9973V1.00286C14 0.449312 13.5368 0 12.9653 0H1.03469ZM4.32464 5.52365V11.8998H2.22383V5.52365H4.32464ZM4.46311 3.55176C4.46311 4.16364 4.00711 4.65325 3.27467 4.65325L3.27451 4.6532H3.26091C2.55583 4.6532 2.1 4.16359 2.1 3.55171C2.1 2.92595 2.56959 2.45 3.2886 2.45C4.00711 2.45 4.4494 2.92595 4.46311 3.55176ZM7.5881 11.8998H5.48746L5.48741 11.9C5.48741 11.9 5.51499 6.12203 5.48757 5.52388H7.58827V6.42639C7.86752 5.99202 8.36731 5.37417 9.48162 5.37417C10.8637 5.37417 11.9 6.28551 11.9 8.2439V11.8998H9.79941V8.4891C9.79941 7.63186 9.49522 7.0472 8.73525 7.0472C8.15477 7.0472 7.80911 7.44149 7.65731 7.82239C7.60181 7.95832 7.5881 8.14913 7.5881 8.33945V11.8998Z" fill="#A5A9AF"/>
</svg>
