<svg width="16" height="16" viewBox="0 0 16 16" fill="none" xmlns="http://www.w3.org/2000/svg">
<path fill-rule="evenodd" clip-rule="evenodd" d="M12.1851 2.4386L13.5149 3.71394C13.8821 4.06611 13.8769 4.65954 13.5034 5.0394L12.1507 6.41498C11.9016 6.66822 11.9076 7.07287 12.1641 7.3188L12.7869 7.91611C13.0433 8.16204 13.4531 8.15611 13.7021 7.90288L15.0548 6.52729C16.3 5.26111 16.3171 3.28301 15.093 2.10909L13.7632 0.833752C12.5392 -0.340166 10.5375 -0.265367 9.29236 1.00082L5.68508 4.66904C4.43993 5.93523 4.42282 7.91332 5.64686 9.08724C5.89167 9.32203 6.28286 9.31637 6.5206 9.07461L7.23784 8.34526C7.47558 8.1035 7.46986 7.71718 7.22505 7.4824C6.85783 7.13022 6.86297 6.53679 7.23651 6.15694L10.8438 2.48872C11.2173 2.10886 11.8178 2.08642 12.1851 2.4386Z" fill="#A5A9AF"/>
<path fill-rule="evenodd" clip-rule="evenodd" d="M3.7817 13.5706L2.46962 12.299C2.1073 11.9478 2.11804 11.3568 2.49361 10.9789L3.85366 9.61034C4.10404 9.3584 4.1002 8.95372 3.84509 8.70646L3.23818 8.11824C2.98307 7.87098 2.57329 7.87477 2.32291 8.12671L0.962853 9.49523C-0.289042 10.7549 -0.324843 12.725 0.882889 13.8956L2.19497 15.1673C3.4027 16.3378 5.39662 16.2655 6.64852 15.0059L10.2753 11.3565C11.5272 10.0968 11.563 8.12668 10.3553 6.95613L10.1372 6.73511C9.88293 6.47738 9.46341 6.47766 9.20948 6.73574L8.52668 7.42967C8.27748 7.68295 8.28349 8.0878 8.54009 8.33376L8.76856 8.55274C9.13088 8.9039 9.12014 9.49493 8.74457 9.87284L5.11776 13.5222C4.74219 13.9001 4.14402 13.9218 3.7817 13.5706Z" fill="#A5A9AF"/>
</svg>
