<svg width="14" height="12" viewBox="0 0 14 12" fill="none" xmlns="http://www.w3.org/2000/svg">
<path d="M9.35437 0.00256382V0H10.0108L10.2507 0.0487125C10.4106 0.0803372 10.5558 0.121781 10.6862 0.173058C10.8167 0.224334 10.9429 0.284161 11.0649 0.352525C11.187 0.420889 11.2976 0.490548 11.3969 0.561476C11.4954 0.631558 11.5838 0.705909 11.6621 0.784528C11.7395 0.864007 11.8602 0.884517 12.0243 0.84606C12.1885 0.807603 12.3652 0.754186 12.5546 0.685821C12.7439 0.617457 12.9312 0.540543 13.1163 0.455078C13.3015 0.369613 13.4143 0.31535 13.4547 0.292275C13.4942 0.268355 13.5153 0.255536 13.5178 0.253818L13.5203 0.249972L13.5329 0.243563L13.5455 0.237153L13.5582 0.230744L13.5708 0.224334L13.5733 0.220488L13.5771 0.217925L13.5809 0.215361L13.5834 0.211515L13.596 0.207669L13.6087 0.205105L13.6061 0.224334L13.6023 0.243563L13.596 0.262791L13.5897 0.28202L13.5834 0.294839L13.5771 0.307658L13.5708 0.326887C13.5666 0.339706 13.5624 0.356794 13.5582 0.378163C13.554 0.399533 13.514 0.484985 13.4382 0.634545C13.3625 0.784105 13.2678 0.935794 13.1542 1.08962C13.0406 1.24345 12.9388 1.35967 12.8487 1.4383C12.7578 1.51778 12.6976 1.57333 12.6682 1.60495C12.6387 1.63742 12.603 1.66733 12.5609 1.69468L12.4977 1.73699L12.4851 1.7434L12.4725 1.74981L12.47 1.75365L12.4662 1.75622L12.4624 1.75878L12.4599 1.76262L12.4472 1.76903L12.4346 1.77544L12.4321 1.77929L12.4283 1.78185L12.4245 1.78442L12.422 1.78826L12.4195 1.79211L12.4157 1.79467L12.4119 1.79724L12.4094 1.80108H12.4725L12.826 1.72417C13.0616 1.67289 13.2867 1.61094 13.5014 1.53829L13.8422 1.42292L13.8801 1.4101L13.899 1.40369L13.9116 1.39728L13.9243 1.39087L13.9369 1.38446L13.9495 1.37805L13.9748 1.37421L14 1.37164V1.39728L13.9937 1.39984L13.9874 1.40369L13.9849 1.40754L13.9811 1.4101L13.9773 1.41266L13.9748 1.41651L13.9722 1.42036L13.9684 1.42292L13.9647 1.42548L13.9621 1.42933L13.9596 1.43317L13.9558 1.43574L13.9495 1.44856L13.9432 1.46138L13.9394 1.46394C13.9377 1.4665 13.8843 1.53914 13.7791 1.68186C13.6739 1.82544 13.6171 1.89807 13.6087 1.89979C13.6002 1.90235 13.5885 1.91517 13.5733 1.93825C13.559 1.96217 13.4698 2.05746 13.3057 2.22411C13.1416 2.39076 12.9808 2.53903 12.8235 2.66893C12.6652 2.79969 12.5853 2.96035 12.5836 3.15093C12.5811 3.34066 12.5714 3.55517 12.5546 3.79445C12.5377 4.03374 12.5062 4.29225 12.4599 4.57001C12.4136 4.84776 12.3421 5.16182 12.2453 5.51221C12.1485 5.86259 12.0307 6.20444 11.8918 6.53774C11.7529 6.87103 11.6078 7.17014 11.4563 7.43507C11.3048 7.7 11.1659 7.92434 11.0397 8.10807C10.9134 8.29181 10.7851 8.46487 10.6546 8.62725C10.5242 8.78963 10.3593 8.97252 10.1598 9.1759C9.95949 9.37845 9.85009 9.48955 9.83157 9.5092C9.81222 9.52801 9.72975 9.59809 9.58413 9.71943C9.43938 9.84164 9.28368 9.96384 9.11704 10.0861C8.95125 10.2074 8.79892 10.3087 8.66005 10.3899C8.52119 10.4711 8.35372 10.5638 8.15762 10.668C7.96238 10.7732 7.75113 10.8706 7.5239 10.9603C7.29666 11.0501 7.05681 11.1334 6.80433 11.2103C6.55185 11.2872 6.30779 11.347 6.07214 11.3898C5.8365 11.4325 5.56929 11.4688 5.27051 11.4987L4.82236 11.5436V11.55H4.0018V11.5436L3.8945 11.5372C3.82297 11.5329 3.76406 11.5286 3.71776 11.5244C3.67148 11.5201 3.49684 11.4966 3.19387 11.4539C2.89089 11.4111 2.65315 11.3684 2.48061 11.3257C2.30809 11.2829 2.0514 11.2017 1.71055 11.0821C1.3697 10.9625 1.07809 10.8415 0.835708 10.7193C0.594173 10.598 0.442685 10.5211 0.381244 10.4886C0.320649 10.457 0.25248 10.4177 0.176736 10.3706L0.0631199 10.3001L0.0606078 10.2963L0.0568079 10.2937L0.0530207 10.2912L0.0504959 10.2873L0.037872 10.2809L0.025248 10.2745L0.0227358 10.2707L0.018936 10.2681L0.0151488 10.2655L0.012624 10.2617L0.0101118 10.2578L0.00631199 10.2553H0V10.2296L0.012624 10.2322L0.025248 10.236L0.0820559 10.2425C0.119928 10.2467 0.223028 10.2531 0.391344 10.2617C0.559672 10.2702 0.738503 10.2702 0.927863 10.2617C1.11722 10.2531 1.3108 10.2339 1.50857 10.204C1.70635 10.1741 1.93989 10.1228 2.2092 10.0502C2.47852 9.97752 2.72595 9.89121 2.9515 9.79122C3.17621 9.69039 3.3361 9.61518 3.43121 9.56561C3.52546 9.51689 3.66938 9.4263 3.86294 9.29384L4.15329 9.09514L4.15582 9.0913L4.1596 9.08873L4.1634 9.08617L4.16591 9.08233L4.16844 9.07848L4.17223 9.07592L4.17603 9.07335L4.17854 9.06951L4.19116 9.06566L4.20379 9.0631L4.20631 9.05028L4.2101 9.03746L4.2139 9.03489L4.21641 9.03105L4.11542 9.02464C4.0481 9.02037 3.98287 9.01609 3.91975 9.01182C3.85663 9.00755 3.75774 8.98832 3.62308 8.95413C3.48844 8.91995 3.34326 8.86867 3.18756 8.80031C3.03186 8.73194 2.88038 8.65074 2.73309 8.55674C2.58582 8.46274 2.47935 8.38453 2.41371 8.32215C2.34891 8.26061 2.26474 8.17345 2.16123 8.06064C2.05856 7.94699 1.96934 7.83032 1.8936 7.71068C1.81785 7.59104 1.74548 7.45301 1.67648 7.29663L1.57169 7.06332L1.56537 7.04409L1.55906 7.02486L1.55527 7.01204L1.55275 6.99922L1.57169 7.00179L1.59062 7.00563L1.72949 7.02486C1.82207 7.03768 1.96725 7.04195 2.16501 7.03768C2.36279 7.03341 2.49955 7.02486 2.57529 7.01204C2.65104 6.99922 2.69733 6.99067 2.71416 6.9864L2.7394 6.97999L2.77096 6.97358L2.80252 6.96718L2.80505 6.96333L2.80884 6.96077L2.81264 6.9582L2.81515 6.95436L2.7899 6.94795L2.76465 6.94154L2.7394 6.93513L2.71416 6.92872L2.68891 6.92231C2.67208 6.91804 2.64263 6.90949 2.60054 6.89667C2.55847 6.88385 2.44485 6.83684 2.25969 6.75566C2.07455 6.67448 1.92727 6.59542 1.81785 6.51851C1.70817 6.44137 1.60359 6.35701 1.50478 6.26597C1.40631 6.17367 1.29817 6.05488 1.18034 5.9096C1.06252 5.76432 0.957327 5.59553 0.864743 5.40325C0.772171 5.21096 0.702739 5.02722 0.656447 4.85203C0.610341 4.67786 0.579923 4.49979 0.565567 4.32003L0.542831 4.05083L0.555455 4.0534L0.568079 4.05724L0.580703 4.06365L0.593327 4.07006L0.605951 4.07647L0.618575 4.08288L0.814247 4.17261C0.944703 4.23244 1.10671 4.28372 1.30027 4.32644C1.49385 4.36917 1.60956 4.39268 1.64743 4.39695L1.70424 4.40336H1.81785L1.81534 4.39951L1.81154 4.39695L1.80775 4.39438L1.80523 4.39054L1.80272 4.38669L1.79892 4.38413L1.79513 4.38156L1.79261 4.37772L1.77998 4.37131L1.76736 4.3649L1.76485 4.36105L1.76105 4.35849L1.75726 4.35593L1.75473 4.35208L1.74211 4.34567L1.72949 4.33926L1.72697 4.33542C1.72445 4.3337 1.68826 4.30636 1.61839 4.25337C1.54938 4.19953 1.47701 4.12989 1.40126 4.04442C1.32552 3.95896 1.24977 3.86922 1.17403 3.77522C1.09815 3.681 1.03056 3.5802 0.972047 3.47397C0.913143 3.36715 0.850857 3.23126 0.785212 3.06633C0.720413 2.90224 0.671179 2.73688 0.637511 2.57023C0.603856 2.40358 0.58492 2.23907 0.580703 2.07669C0.5765 1.91431 0.580703 1.77544 0.593327 1.66007C0.605951 1.5447 0.631199 1.41437 0.669071 1.26909C0.706943 1.12381 0.761656 0.969982 0.833183 0.807603L0.940487 0.56404L0.946799 0.544811L0.953111 0.525583L0.956911 0.523019L0.959423 0.519173L0.961948 0.515327L0.965735 0.512764L0.969535 0.515327L0.972047 0.519173L0.974572 0.523019L0.978359 0.525583L0.982159 0.528147L0.984671 0.531992L0.987196 0.535838L0.990983 0.538402L0.997295 0.551221L1.00361 0.56404L1.00741 0.566604L1.00992 0.57045L1.18034 0.762736C1.29396 0.890927 1.42862 1.03408 1.58431 1.19218C1.74001 1.35027 1.82627 1.43232 1.8431 1.4383C1.85994 1.44513 1.88097 1.46479 1.90622 1.49727C1.93147 1.52889 2.01563 1.60453 2.1587 1.72417C2.30178 1.84381 2.48903 1.98269 2.72047 2.14079C2.95192 2.29889 3.2086 2.45486 3.49053 2.60868C3.77248 2.76251 4.07545 2.90138 4.39946 3.02531C4.72348 3.14923 4.95071 3.23041 5.08115 3.26887C5.21161 3.30733 5.43463 3.35646 5.75022 3.41629C6.06582 3.47611 6.30358 3.51457 6.46348 3.53166C6.62339 3.54875 6.7328 3.55858 6.7917 3.56114L6.88007 3.56371L6.87756 3.54448L6.87376 3.52525L6.84851 3.36501C6.83168 3.25819 6.82326 3.10863 6.82326 2.91634C6.82326 2.72406 6.838 2.54673 6.86745 2.38435C6.89691 2.22197 6.9411 2.05746 7 1.89082C7.05892 1.72417 7.11657 1.59041 7.17295 1.48958C7.23019 1.38959 7.30508 1.2755 7.39766 1.14731C7.49024 1.01912 7.61017 0.886658 7.75744 0.749917C7.90472 0.613176 8.07304 0.491394 8.2624 0.384573C8.45176 0.277751 8.6264 0.196555 8.78629 0.14101C8.9462 0.0854649 9.08086 0.0491356 9.19026 0.0320477C9.29967 0.0149599 9.35437 0.00512764 9.35437 0.00256382V0.00256382Z" fill="#A5A9AF"/>
</svg>
