<svg width="22" height="22" viewBox="0 0 22 22" fill="none" xmlns="http://www.w3.org/2000/svg">
<path d="M21.1646 10.3038H0.556965V11.4177H21.1646V10.3038Z" fill="#A5A9AF"/>
<path d="M11.4177 21.1646L11.4177 0.55696H10.3038L10.3038 21.1646H11.4177Z" fill="#A5A9AF"/>
<path fill-rule="evenodd" clip-rule="evenodd" d="M11 1.11392C16.4599 1.11392 20.8861 5.54007 20.8861 11C20.8861 16.4599 16.4599 20.8861 11 20.8861C5.54007 20.8861 1.11392 16.4599 1.11392 11C1.11392 5.54007 5.54007 1.11392 11 1.11392ZM22 11C22 4.92487 17.0751 0 11 0C4.92487 0 4.76837e-07 4.92487 4.76837e-07 11C4.76837e-07 17.0751 4.92487 22 11 22C17.0751 22 22 17.0751 22 11Z" fill="#A5A9AF"/>
<path fill-rule="evenodd" clip-rule="evenodd" d="M7.52837 4.43637C8.3266 2.6226 9.45699 1.42493 10.8484 1.09927L10.5946 0.0146542C8.71389 0.454819 7.37277 2.02455 6.50881 3.98768C5.63981 5.96226 5.20453 8.43438 5.18672 10.8915C5.16892 13.3489 5.56834 15.8376 6.40909 17.8464C7.24502 19.8436 8.56193 21.4621 10.4338 21.9798L10.7308 20.9062C9.33048 20.5189 8.21068 19.2656 7.43664 17.4163C6.66742 15.5785 6.28362 13.246 6.30062 10.8996C6.31762 8.55296 6.73519 6.23869 7.52837 4.43637Z" fill="#A5A9AF"/>
<path fill-rule="evenodd" clip-rule="evenodd" d="M14.3667 4.43637C13.5684 2.6226 12.438 1.42493 11.0466 1.09927L11.3004 0.0146542C13.1811 0.454819 14.5223 2.02455 15.3862 3.98768C16.2552 5.96226 16.6905 8.43438 16.7083 10.8915C16.7261 13.3489 16.3267 15.8376 15.4859 17.8464C14.65 19.8436 13.3331 21.4621 11.4612 21.9798L11.1643 20.9062C12.5645 20.5189 13.6843 19.2656 14.4584 17.4163C15.2276 15.5785 15.6114 13.246 15.5944 10.8996C15.5774 8.55296 15.1598 6.23869 14.3667 4.43637Z" fill="#A5A9AF"/>
<path fill-rule="evenodd" clip-rule="evenodd" d="M15.6117 16.5551C16.9873 16.9 18.1207 17.3882 18.8695 17.981L19.5609 17.1076C18.6388 16.3776 17.3355 15.8389 15.8827 15.4746C14.4216 15.1082 12.7686 14.908 11.1134 14.8813C9.4584 14.8545 7.78645 15.0009 6.28786 15.336C4.79629 15.6696 3.43898 16.1985 2.44529 16.9626L3.12432 17.8456C3.94076 17.2178 5.12459 16.7376 6.53096 16.4231C7.93032 16.1101 9.51311 15.9695 11.0954 15.9951C12.6776 16.0206 14.2446 16.2122 15.6117 16.5551Z" fill="#A5A9AF"/>
<path fill-rule="evenodd" clip-rule="evenodd" d="M10.9995 6.01958C14.0007 6.01707 16.9472 5.36118 18.9155 4.10491L19.5148 5.04388C17.3059 6.45371 14.1259 7.13089 11.0005 7.13351C7.875 7.13613 4.69543 6.46427 2.4868 5.06547L3.08281 4.1244C5.0514 5.37118 7.99841 6.0221 10.9995 6.01958Z" fill="#A5A9AF"/>
</svg>
